<?xml version="1.0" encoding="utf-8"?>
<!-- Generator: Adobe Illustrator 15.0.2, SVG Export Plug-In . SVG Version: 6.00 Build 0)  -->
<!DOCTYPE svg PUBLIC "-//W3C//DTD SVG 1.1//EN" "http://www.w3.org/Graphics/SVG/1.1/DTD/svg11.dtd">
<svg version="1.1" id="Ebene_1" xmlns="http://www.w3.org/2000/svg" xmlns:xlink="http://www.w3.org/1999/xlink" x="0px" y="0px"
	 width="484.476px" height="322.484px" viewBox="0 0 484.476 322.484" enable-background="new 0 0 484.476 322.484"
	 xml:space="preserve">
<path fill="#3A54A2" d="M39.324,23.154C17.887,37.756,7.171,55.75,7.171,77.146v94.951c0,9.798,5.898,21.429,17.705,34.895
	c6.376,6.153,11.855,10.684,16.433,13.587c7.646,4.379,12.883,6.895,15.712,7.533c6.958,3.549,25.682,5.331,56.176,5.331
	c9.302,0,21.705-0.369,37.209-1.104c8.219,0,15.44-2.199,21.674-6.616c9.21-5.933,18.246-14.694,27.098-26.259
	c5.688-7.158,11.763-19.77,18.238-37.837c2.561-8.11,3.944-12.211,4.155-12.308h32.875l22.937-57.296
	c0-0.364-0.119-0.549-0.361-0.549h-31.788c3.431-14.818,9.513-22.225,18.243-22.225h26.37v94.953c0,8.936,2.288,18.362,6.863,28.281
	c14.27,28.16,43.59,42.24,87.966,42.24c41.452,0,69.565-13.407,84.347-40.218c3.733-7.351,6.383-15.49,7.947-24.429
	c0.846-4.222,1.263-20.506,1.263-48.849V77.146l-0.177-66.115h-0.18l-0.185-0.185h-61.229l-0.358,0.366v140.497
	c0,15.431-9.455,23.146-28.36,23.146h-4.515c-12.706,0-21.312-2.576-25.832-7.715c-3.733-3.367-5.595-11.019-5.595-22.961V11.212
	l-0.364-0.366H261.67c-13.574,0-26.223,2.815-37.933,8.45c-4.996,2.294-10.594,6.581-16.798,12.854
	c-7.612,8.849-16.045,24.7-25.286,47.563c-2.199,6.246-3.462,9.489-3.797,9.737H131.26l-0.361,0.372v57.844l0.361,0.367h21.134
	v0.925c0,8.045-2.049,14.167-6.144,18.365c-2.133,2.935-7.072,4.408-14.811,4.408H83.211c-1.229,0-2.618-0.313-4.155-0.925
	c-4.214-2.292-7.222-5.968-9.025-11.012c-1.566-1.439-2.347-9.832-2.347-25.164v-2.39l0.177-48.299
	c0.124-1.622,0.422-3.272,0.904-4.963c3.881-7.836,10.623-11.752,20.229-11.752h77.124l0.185-0.179l-0.185-36.184V7.909
	l-0.358-0.369H79.422C67.167,8.794,53.801,14.002,39.324,23.154"/>
<g>
	<path fill="#3A54A2" d="M52.644,300.392c-2.23,0.87-5.191,1.732-8.875,2.595c-3.684,0.859-7.356,1.289-11.017,1.289
		c-8.487,0-15.127-2.305-19.928-6.916c-4.805-4.611-7.201-10.977-7.201-19.108c0-7.744,2.421-13.99,7.267-18.736
		c4.844-4.746,11.6-7.119,20.264-7.119c3.28,0,6.407,0.292,9.376,0.891c2.969,0.594,6.275,1.765,9.914,3.533v11.687h-1.439
		c-0.625-0.47-1.54-1.134-2.748-1.988c-1.205-0.865-2.365-1.593-3.482-2.199c-1.295-0.712-2.809-1.326-4.535-1.84
		c-1.732-0.515-3.57-0.768-5.514-0.768c-2.275,0-4.34,0.329-6.193,1.002c-1.854,0.67-3.515,1.7-4.991,3.079
		c-1.406,1.343-2.516,3.041-3.333,5.11c-0.815,2.064-1.221,4.445-1.221,7.15c0,5.517,1.46,9.738,4.387,12.662
		c2.925,2.919,7.246,4.385,12.963,4.385c0.487,0,1.03-0.011,1.624-0.037c0.591-0.021,1.134-0.056,1.624-0.098v-9.782h-9.948v-9.407
		h23.008V300.392z"/>
	<path fill="#3A54A2" d="M96.266,263.016H73.324v9.276h21.268v9.643H73.324v21.305H60.531v-49.874h35.735V263.016z"/>
	<path fill="#3A54A2" d="M144.768,285.183c0,6.168-1.874,10.888-5.626,14.167c-3.752,3.286-9.279,4.926-16.58,4.926
		s-12.822-1.64-16.562-4.926c-3.741-3.279-5.608-7.994-5.608-14.133v-31.852h12.929v31.119c0,3.456,0.725,6.038,2.172,7.73
		c1.456,1.703,3.811,2.547,7.069,2.547c3.214,0,5.563-0.81,7.051-2.444c1.484-1.632,2.228-4.245,2.228-7.833v-31.119h12.928V285.183
		z"/>
	<path fill="#3A54A2" d="M191.869,304.209c-3.705,0-7.128-0.548-10.266-1.643c-3.135-1.097-5.832-2.724-8.086-4.891
		c-2.255-2.165-4.003-4.865-5.239-8.105c-1.242-3.235-1.864-6.977-1.864-11.217c0-3.955,0.596-7.535,1.777-10.75
		c1.184-3.219,2.902-5.975,5.159-8.273c2.162-2.213,4.85-3.918,8.056-5.126c3.201-1.205,6.7-1.809,10.494-1.809
		c2.099,0,3.994,0.118,5.682,0.354c1.688,0.237,3.243,0.54,4.673,0.923c1.492,0.424,2.853,0.896,4.068,1.421
		c1.218,0.524,2.283,1.013,3.201,1.458v12.089h-1.479c-0.619-0.532-1.405-1.165-2.359-1.898c-0.947-0.735-2.022-1.458-3.233-2.167
		c-1.226-0.709-2.552-1.308-3.981-1.798c-1.429-0.491-2.963-0.736-4.588-0.736c-1.812,0-3.535,0.288-5.162,0.857
		c-1.633,0.566-3.136,1.506-4.52,2.824c-1.318,1.268-2.384,2.95-3.195,5.046c-0.817,2.094-1.227,4.633-1.227,7.62
		c0,3.117,0.438,5.728,1.323,7.818c0.881,2.096,1.994,3.747,3.333,4.943c1.36,1.227,2.88,2.104,4.554,2.624
		c1.675,0.527,3.33,0.788,4.954,0.788c1.564,0,3.114-0.231,4.644-0.698c1.526-0.467,2.94-1.103,4.234-1.898
		c1.098-0.644,2.115-1.332,3.051-2.064c0.938-0.733,1.709-1.369,2.308-1.901h1.345v11.921c-1.253,0.562-2.447,1.086-3.589,1.579
		c-1.139,0.493-2.333,0.912-3.581,1.271c-1.629,0.47-3.161,0.825-4.59,1.073C196.337,304.083,194.368,304.209,191.869,304.209z"/>
	<path fill="#3A54A2" d="M232.859,289.94l8.585-24.313h12.4l-20.901,51.408H219.86l5.978-14.085l-14.629-37.323h12.664
		L232.859,289.94z"/>
	<path fill="#3A54A2" d="M283.821,277.113h-1.064c-0.515-0.177-1.337-0.309-2.477-0.401c-1.136-0.09-2.083-0.132-2.837-0.132
		c-1.719,0-3.228,0.111-4.543,0.335c-1.318,0.225-2.731,0.602-4.245,1.139v25.187h-12.092v-37.613h12.092v5.524
		c2.649-2.275,4.954-3.789,6.921-4.535c1.951-0.749,3.763-1.121,5.408-1.121c0.425,0,0.902,0.008,1.435,0.029
		c0.538,0.026,1.002,0.061,1.402,0.103V277.113z"/>
	<path fill="#3A54A2" d="M324.221,303.24h-12.09v-4.155c-2.228,1.697-4.266,2.987-6.119,3.868c-1.852,0.88-4.056,1.323-6.621,1.323
		c-4.147,0-7.341-1.194-9.585-3.583c-2.243-2.39-3.361-5.914-3.361-10.584v-24.482h12.092v18.652c0,1.901,0.063,3.48,0.185,4.743
		c0.119,1.264,0.403,2.3,0.854,3.133c0.422,0.828,1.062,1.429,1.925,1.809c0.856,0.377,2.057,0.567,3.599,0.567
		c1.026,0,2.165-0.19,3.412-0.567c1.253-0.38,2.463-0.938,3.62-1.677v-26.66h12.09V303.24z"/>
	<path fill="#3A54A2" d="M364.866,291.316c0,3.885-1.74,7.014-5.223,9.396c-3.486,2.378-8.248,3.564-14.302,3.564
		c-3.349,0-6.381-0.312-9.11-0.937c-2.724-0.627-4.906-1.315-6.562-2.077v-9.911h1.103c0.606,0.422,1.308,0.886,2.099,1.387
		c0.794,0.503,1.911,1.044,3.361,1.627c1.253,0.511,2.671,0.951,4.256,1.32c1.582,0.372,3.28,0.554,5.089,0.554
		c2.368,0,4.124-0.264,5.255-0.788c1.142-0.527,1.714-1.3,1.714-2.328c0-0.912-0.335-1.579-1.004-1.993
		c-0.67-0.411-1.946-0.81-3.818-1.187c-0.894-0.203-2.102-0.42-3.634-0.654c-1.531-0.234-2.916-0.517-4.168-0.856
		c-3.42-0.895-5.951-2.281-7.607-4.166c-1.647-1.889-2.479-4.237-2.479-7.051c0-3.62,1.714-6.629,5.145-9.028
		c3.425-2.399,8.11-3.599,14.051-3.599c2.809,0,5.514,0.284,8.084,0.854c2.582,0.572,4.594,1.179,6.046,1.827v9.509h-1.038
		c-1.783-1.227-3.823-2.226-6.109-2.998c-2.289-0.768-4.606-1.152-6.95-1.152c-1.943,0-3.576,0.269-4.904,0.804
		c-1.332,0.535-1.996,1.295-1.996,2.278c0,0.894,0.3,1.571,0.904,2.041c0.601,0.47,2.024,0.936,4.25,1.408
		c1.231,0.242,2.553,0.487,3.977,0.72c1.413,0.231,2.837,0.527,4.266,0.886c3.17,0.828,5.514,2.128,7.032,3.902
		C364.112,286.441,364.866,288.656,364.866,291.316z"/>
	<path fill="#3A54A2" d="M432.163,303.24h-13.28l-3.471-10.083h-18.454l-3.473,10.083H380.52l18.423-49.874h14.806L432.163,303.24z
		 M412.319,284.012l-6.133-17.86l-6.141,17.86H412.319z"/>
	<path fill="#3A54A2" d="M477.955,300.392c-2.233,0.87-5.187,1.732-8.875,2.595c-3.681,0.859-7.359,1.289-11.016,1.289
		c-8.488,0-15.13-2.305-19.932-6.916c-4.801-4.611-7.198-10.977-7.198-19.108c0-7.744,2.421-13.99,7.27-18.736
		c4.841-4.746,11.597-7.119,20.264-7.119c3.279,0,6.404,0.292,9.376,0.891c2.964,0.594,6.272,1.765,9.911,3.533v11.687h-1.439
		c-0.625-0.47-1.54-1.134-2.745-1.988c-1.21-0.865-2.37-1.593-3.482-2.199c-1.298-0.712-2.812-1.326-4.546-1.84
		c-1.722-0.515-3.56-0.768-5.5-0.768c-2.284,0-4.349,0.329-6.199,1.002c-1.859,0.67-3.518,1.7-4.989,3.079
		c-1.407,1.343-2.521,3.041-3.34,5.11c-0.812,2.064-1.216,4.445-1.216,7.15c0,5.517,1.463,9.738,4.385,12.662
		c2.927,2.919,7.246,4.385,12.962,4.385c0.488,0,1.034-0.011,1.622-0.037c0.596-0.021,1.136-0.056,1.629-0.098v-9.782h-9.945v-9.407
		h23.005V300.392z"/>
</g>
</svg>

