<?xml version="1.0" encoding="utf-8"?>
<!-- Generator: Adobe Illustrator 18.1.1, SVG Export Plug-In . SVG Version: 6.00 Build 0)  -->
<svg version="1.1" id="Layer_1" xmlns="http://www.w3.org/2000/svg" xmlns:xlink="http://www.w3.org/1999/xlink" x="0px" y="0px"
	 viewBox="0 0 248 65" enable-background="new 0 0 248 65" xml:space="preserve">
<g>
	<g>
		<path fill="#ED1F24" d="M32.7,46.6l0.5,2.2c-1.8,0.6-4.6,0.9-6.1,0.9c-8.4,0-10.6-5.9-10.6-11.8c0-6,2.6-11.4,9.5-11.4
			c2,0,7.8,0.6,8,8.8v2.4H19c0,4.8,1.5,9.8,8.2,9.8C28.8,47.4,30.5,47.2,32.7,46.6z M19.2,35.3h12.4c-0.3-6.1-3.6-6.5-5.7-6.5
			C21.7,28.8,19.7,31.6,19.2,35.3z"/>
		<path fill="#ED1F24" d="M47.4,47.4c1.7,0,2.8,0,5.6-0.6l0.5,2.3c-2.1,0.5-4,0.7-6.1,0.7c-7.6,0-10-5.7-10-11.8
			c0.1-6,2.8-11.4,10.4-11.4c1.9,0,3.4,0.2,5.6,0.7l-0.5,2.2c-2.3-0.5-3.6-0.6-5-0.6c-6,0-7.8,4.9-7.8,9.1
			C40,42.2,41.4,47.4,47.4,47.4z"/>
		<path fill="#ED1F24" d="M65.7,26.5c6.5,0,9.4,5.2,9.4,11.6c0,6.3-2.5,11.7-9.5,11.7c-6.8-0.1-9.4-5.4-9.4-11.7
			C56.3,31.8,59.2,26.6,65.7,26.5z M65.8,47.4c5.6-0.1,6.9-5,6.9-9.4c0-4-1.6-9.3-7-9.3c-5.4,0.1-6.9,5-6.9,9.3
			C58.8,42.6,60.2,47.4,65.8,47.4z"/>
		<path fill="#ED1F24" d="M106.1,49.3V34c0-3.8-1.4-5.2-4.3-5.2c-2,0-3.9,1-5.8,2.2c0.2,1,0.2,1.9,0.2,2.5v15.7h-2.6V33.6
			c0-3.8-1.5-4.9-4.4-4.9c-1.9,0-4.3,1.2-6.4,2.3v18.2h-2.6V26.9H83v1.8c1.7-0.9,3.8-2.2,6.5-2.2c3,0,4.8,0.8,5.7,2.4
			c1.7-1.1,4.2-2.4,6.6-2.4c7.5-0.1,6.8,6,6.8,7.6v15.2H106.1z"/>
		<path fill="#ED1F24" d="M142.5,49.3h-12.8v-5.1h3.6v-7.1c0-4-2.1-6.2-5.6-6.2c-2,0-4.1,1.2-5.9,3.3v10h3.7v5.1h-12.8v-5.1h3.6
			V20.3h-3.6v-5.1h9.1v13.2c1.9-1.6,4.3-2.6,7-2.6c6,0,10,4.3,10,10.9v7.4h3.6V49.3z"/>
		<path fill="#ED1F24" d="M168.2,44.2h3.6v5.1h-9.2v-1.6c-1.9,1.3-4.2,2.1-7,2.1c-6.3,0-11.4-5.3-11.4-11.9
			c0-6.6,5.1-11.9,11.4-11.9c2.7,0,5.1,0.8,7,2.1v-1.6h9.2v5.1h-3.6V44.2z M162.7,42.4v-8.9c-2-1.9-4-2.6-6.1-2.6
			c-3.9,0-6.7,3.3-6.7,7.1c0,3.7,2.8,7.1,6.7,7.1C158.7,45,160.8,44.3,162.7,42.4z"/>
		<path fill="#ED1F24" d="M198.5,40.8c-0.8,5.4-5,9-11.2,9c-7.2,0-12.5-5-12.5-11.9s5.1-11.8,12.1-11.8c2.5,0,4.7,0.8,6.3,2.1v-1.7
			h5.1v8.5H193c-0.6-2.4-2.8-4-5.7-4c-4,0-7,3-7,6.9c0,3.8,3,6.9,7,6.9c2.8,0,4.9-1.6,5.5-4H198.5z"/>
		<path fill="#ED1F24" d="M231.5,49.3H221v-3.6l-5.6-6.9l-5.2,4.2v1.2h4.1v5.1h-13.2v-5.1h3.6V20.3h-3.6v-5.1h9.1v21.9l7.5-6v-4.6
			h11.6v5.1h-5.1l-4.7,3.7l7.1,8.8h4.9V49.3z"/>
	</g>
	<rect x="217.6" y="18.3" fill="#ED1F24" width="11.6" height="4.8"/>
</g>
</svg>
